<?xml version="1.0" encoding="utf-8"?>
<!-- Generator: Adobe Illustrator 18.0.0, SVG Export Plug-In . SVG Version: 6.00 Build 0)  -->
<!DOCTYPE svg PUBLIC "-//W3C//DTD SVG 1.1//EN" "http://www.w3.org/Graphics/SVG/1.1/DTD/svg11.dtd">
<svg version="1.1" id="Layer_1" xmlns="http://www.w3.org/2000/svg" xmlns:xlink="http://www.w3.org/1999/xlink" x="0px" y="0px"
	 viewBox="0 0 250 179.5" enable-background="new 0 0 250 179.5" xml:space="preserve">
<g>
	<g>
		<g>
			<path fill="#EAEBFB" d="M227.2,141.6c30.9-28.1,26.4-73.3,5.1-84.5C211,46,187.5,51.4,179.7,67c-7.8,15.6-25.1,21.2-25.1,21.2
				s-20.8,10.2-50.2,0.5c-29.5-9.7-48.3-5.5-60.1,9.1c-9.6,11.7-14.2,35.2,4.5,51.4h168.8C221,146.8,224.2,144.3,227.2,141.6z"/>
		</g>
		<g>
			<defs>
				<path id="SVGID_1_" d="M227.2,141.6c30.9-28.1,26.4-73.3,5.1-84.5C211,46,187.5,51.4,179.7,67c-7.8,15.6-25.1,21.2-25.1,21.2
					s-20.8,10.2-50.2,0.5c-29.5-9.7-48.3-5.5-60.1,9.1c-9.6,11.7-14.2,35.2,4.5,51.4h168.8C221,146.8,224.2,144.3,227.2,141.6z"/>
			</defs>
			<clipPath id="SVGID_2_">
				<use xlink:href="#SVGID_1_"  overflow="visible"/>
			</clipPath>
			<path clip-path="url(#SVGID_2_)" fill="#E1E2F5" d="M140.7,54.9c0,0,73.4,26.2,40.5,54c-36.7,30.9-5.4,41.6,15.3,48.2
				c22.9,7.3-169.2-5.2-169.2-5.2l3.2-65.2l20-23.8l61-4.7L140.7,54.9z"/>
		</g>
	</g>
	<g>
		<path fill="#DD2C41" d="M142.6,36.6c0,0-4.8,1.3-3.8,6l1.3,3.5l24.8-0.5l-4.7-8.7c-1.4-2.6-4.2-4-7.1-3.6l-6.9,0.9L142.6,36.6z"/>
		<g>
			<g>
				<g>
					<path fill="#DFB48F" d="M148.6,37.1L148.6,37.1c-0.9,0.5-1.9,0.1-2.4-0.7l-2.9-5.2l3.1-1.7l2.8,5.2
						C149.8,35.6,149.5,36.6,148.6,37.1z"/>
					<path fill="#E5BE9C" d="M145.3,36.4L145.3,36.4c-2.1,1.2-4.8,0.4-5.9-1.7l-2.6-4.7l7.6-4.2l2.6,4.7
						C148.1,32.6,147.4,35.2,145.3,36.4z"/>
				</g>
			</g>
			<path fill="#282C3C" d="M145.6,30.2c0,0-1.4,0.1-1.8-1.5c-0.4-1.6-2.6-1.2-2.6-1.2l2.1-2.2c0,0,3.3-1.3,3.3,3.2L145.6,30.2z"/>
			<path fill="#282C3C" d="M143.6,27.6l-5.8,3.2c-0.8,0.4-1.7,0.4-2.4-0.2c-0.8-0.6-1.3-1.6-0.6-3.3c1-2.5,1.9-0.7,1.9-0.7
				s6.1-5,7.1-0.3L143.6,27.6z"/>
			<path fill="#E5BE9C" d="M147.4,28.3c0.8,0.8,0.5,2.2-0.7,2.4c-0.4,0.1-0.8,0-1.1-0.3c-0.8-0.8-0.5-2.2,0.7-2.4
				C146.7,27.9,147.1,28.1,147.4,28.3z"/>
		</g>
		<path fill="#FFFFFF" d="M141.3,35.1l3-1.8c0,0,0.6,1.2-1.1,2.1C141.9,36.1,141.3,35.1,141.3,35.1z"/>
	</g>
	<path fill="#ECEDFD" d="M61.4,13.8c0,0,2.2-2.6,3.6-3.7c2.4-2.1,5.3-5.8,14.2-3.1c0.7,0.2,1.4,0.5,2,0.8c0.8,0.3,3.2,0.3,5.8-1.7
		c4-3.2,5.6-5.6,11-5.6c6.4-0.1,7.4,7.8,12.3,9.9c3.1,1.3,11.5,2.6,13.2,3.1L61.4,13.8z"/>
	<g>
		<path fill="#95B9FC" d="M232.7,136.1c0.5,0.4,5.2-7.3,6.7-17.2c0,0,0.7-4.9-4.1-2.6c0,0,5.9-21.3-7.1-20.3
			c-2.2,0.2-3.5,0.6-4.9,1.9c-1.8,1.8-2.9,4.8-1.1,9.3c3.7,9,7.1,12.6,5.1,17.2C225.4,129,225.9,130.3,232.7,136.1z"/>
		<path fill="#648DD6" d="M230.7,150.1c-0.3-0.1-0.4-0.3-0.3-0.6c3.7-14.3,0.6-38.9,0.1-40c-0.1-0.2-0.1-0.5,0.1-0.6
			c0.2-0.1,0.5-0.1,0.7,0.2c0.8,1.3,3.6,26.8,0,40.8C231.2,150,231,150.1,230.7,150.1z"/>
	</g>
	
		<line fill="none" stroke="#1D2738" stroke-width="0.4098" stroke-linecap="round" stroke-linejoin="round" stroke-miterlimit="10" x1="1.2" y1="149.4" x2="249.3" y2="149.4"/>
	<g>
		<path fill="#C9CDEA" d="M143.7,171.2h-11.1c-0.3,0-0.5-0.2-0.5-0.5v-11.7c0-0.3,0.3-0.6,0.6-0.6h10.9c0.3,0,0.6,0.3,0.6,0.6v11.7
			C144.2,171,144,171.2,143.7,171.2z"/>
		<path fill="#6D67C6" d="M141,168.5h3.2v-7.1H141c-1.9,0-3.5,1.6-3.5,3.5v0.1C137.5,166.9,139.1,168.5,141,168.5z"/>
		<path fill="#6D67C6" d="M132.1,168.9c-0.1,0-0.1,0-0.2-0.1c-1-0.8-1.6-1.7-1.6-2.8c0-2.8,3.6-5.5,3.7-5.6c0.1-0.1,0.3-0.1,0.4,0.1
			c0.1,0.1,0.1,0.3-0.1,0.4c0,0-3.5,2.7-3.5,5.2c0,0.9,0.5,1.7,1.3,2.3c0.1,0.1,0.2,0.3,0.1,0.4
			C132.3,168.9,132.2,168.9,132.1,168.9z"/>
	</g>
	
		<path fill="none" stroke="#EAEBFB" stroke-width="0.8831" stroke-linecap="round" stroke-linejoin="round" stroke-miterlimit="10" d="
		M168.4,21c0,0,1.1-1.3,1.8-1.9c1.2-1.1,2.7-3,7.2-1.6c0.4,0.1,0.7,0.3,1,0.4c0.4,0.2,1.6,0.2,2.9-0.8c2-1.6,2.8-2.8,5.6-2.9
		c3.2,0,3.7,4,6.2,5c1.6,0.7,5.8,1.3,6.7,1.6L168.4,21z"/>
	<g>
		<g>
			<path fill="#93B7FA" d="M54,47.2c1.6-1.9,2.5-4.3,2.5-6.9c0-5.9-4.9-10.8-10.8-10.8h-7.6c-5.9,0-10.8,4.9-10.8,10.8
				c0,5.9,4.9,10.8,10.8,10.8h7.6c1.7,0,3.4-0.4,4.8-1.2l5.4,3L54,47.2z"/>
		</g>
		<path fill="#FFFFFF" d="M47.5,38.7h-1.2c-0.1-0.3-0.2-0.6-0.4-0.9l0.8-0.8c0.2-0.2,0.2-0.6,0-0.8l-1-1c-0.2-0.2-0.6-0.2-0.8,0
			L44.1,36c-0.3-0.2-0.6-0.3-0.9-0.4v-1.2c0-0.3-0.3-0.6-0.6-0.6h-1.4c-0.3,0-0.6,0.3-0.6,0.6v1.2c-0.3,0.1-0.6,0.2-0.9,0.4
			l-0.8-0.8c-0.2-0.2-0.6-0.2-0.8,0l-1,1c-0.2,0.2-0.2,0.6,0,0.8l0.8,0.8c-0.2,0.3-0.3,0.6-0.4,0.9h-1.2c-0.3,0-0.6,0.3-0.6,0.6v1.4
			c0,0.3,0.3,0.6,0.6,0.6h1.2c0.1,0.3,0.2,0.6,0.4,0.9L37,43c-0.2,0.2-0.2,0.6,0,0.8l1,1c0.2,0.2,0.6,0.2,0.8,0l0.8-0.8
			c0.3,0.2,0.6,0.3,0.9,0.4v1.2c0,0.3,0.3,0.6,0.6,0.6h1.4c0.3,0,0.6-0.3,0.6-0.6v-1.2c0.3-0.1,0.6-0.2,0.9-0.4l0.8,0.8
			c0.2,0.2,0.6,0.2,0.8,0l1-1c0.2-0.2,0.2-0.6,0-0.8l-0.8-0.8c0.2-0.3,0.3-0.6,0.4-0.9h1.2c0.3,0,0.6-0.3,0.6-0.6v-1.4
			C48.1,39,47.8,38.7,47.5,38.7z M41.9,42.5c-1.4,0-2.5-1.1-2.5-2.5c0-1.4,1.1-2.5,2.5-2.5c1.4,0,2.5,1.1,2.5,2.5
			C44.3,41.4,43.2,42.5,41.9,42.5z"/>
	</g>
	<g>
		<g>
			<rect x="117.9" y="130.1" fill="#C9CDEA" width="22.2" height="14"/>
			<path fill="#BAC0DF" d="M144.5,144h-32.6c-2.9,0-5.3,2.4-5.3,5.3l0,0h43.2l0,0C149.7,146.4,147.4,144,144.5,144z"/>
			<path fill="#DBDFFD" d="M184.9,131H76.1c-4.7,0-8.6-3.8-8.6-8.6V51.4c0-4.7,3.8-8.6,8.6-8.6h108.8c4.7,0,8.6,3.8,8.6,8.6v71.1
				C193.5,127.2,189.7,131,184.9,131z"/>
			<path fill="#C9CDEA" d="M180.3,131H71.5c-4.7,0-8.6-3.8-8.6-8.6V51.4c0-4.7,3.8-8.6,8.6-8.6h108.8c4.7,0,8.6,3.8,8.6,8.6v71.1
				C188.9,127.2,185.1,131,180.3,131z"/>
			<rect x="71.9" y="51.3" fill="#FFFFFF" width="108.4" height="68.6"/>
			<rect x="71.9" y="51.3" fill="#ADB3D5" width="1.3" height="68.6"/>
			<path fill="#8B94C8" d="M127.8,128.9c-2,0-3.7-1.7-3.7-3.7c0-2,1.7-3.7,3.7-3.7c2,0,3.7,1.7,3.7,3.7
				C131.5,127.3,129.8,128.9,127.8,128.9z M127.8,122.2c-1.7,0-3,1.4-3,3c0,1.7,1.4,3,3,3c1.7,0,3-1.4,3-3
				C130.8,123.6,129.5,122.2,127.8,122.2z"/>
		</g>
		<polygon opacity="0.23" fill="#C8C8C8" points="117.9,131 140.2,144 140.2,131 		"/>
		<g>
			<path fill="#ECEDFD" d="M124.2,75.3H80.6c-0.9,0-1.7-0.8-1.7-1.7v-13c0-0.9,0.8-1.7,1.7-1.7h43.6c0.9,0,1.7,0.8,1.7,1.7v13
				C125.9,74.6,125.2,75.3,124.2,75.3z"/>
			<path fill="#ECEDFD" d="M110.8,83.6H80.2c-0.7,0-1.3-0.6-1.3-1.3l0,0c0-0.7,0.6-1.3,1.3-1.3h30.6c0.7,0,1.3,0.6,1.3,1.3l0,0
				C112.1,83,111.5,83.6,110.8,83.6z"/>
			<path fill="#ECEDFD" d="M100.3,89.5H80.2c-0.7,0-1.3-0.6-1.3-1.3l0,0c0-0.7,0.6-1.3,1.3-1.3h20.1c0.7,0,1.3,0.6,1.3,1.3l0,0
				C101.6,88.9,101,89.5,100.3,89.5z"/>
			<path fill="#ECEDFD" d="M100.3,95.7H80.2c-0.7,0-1.3-0.6-1.3-1.3l0,0c0-0.7,0.6-1.3,1.3-1.3h20.1c0.7,0,1.3,0.6,1.3,1.3l0,0
				C101.6,95.1,101,95.7,100.3,95.7z"/>
			<path fill="#ECEDFD" d="M171.8,111.9h-37.3c-1.1,0-2-0.9-2-2v-49c0-1.1,0.9-2,2-2h37.3c1.1,0,2,0.9,2,2v49
				C173.8,111,172.9,111.9,171.8,111.9z"/>
			<path fill="#93B7FA" d="M92.1,65.8c1,3.9-2.4,7.3-6.3,6.3c-1.7-0.4-3-1.8-3.5-3.5c-1-3.9,2.4-7.3,6.3-6.3
				C90.3,62.8,91.7,64.2,92.1,65.8z"/>
		</g>
		<g>
			<path fill="#8992C6" d="M119.4,65.6H97.8c-0.2,0-0.3-0.1-0.3-0.3c0-0.2,0.1-0.3,0.3-0.3h21.5c0.2,0,0.3,0.1,0.3,0.3
				C119.7,65.5,119.5,65.6,119.4,65.6z"/>
			<path fill="#8992C6" d="M119.4,69.5H97.8c-0.2,0-0.3-0.1-0.3-0.3c0-0.2,0.1-0.3,0.3-0.3h21.5c0.2,0,0.3,0.1,0.3,0.3
				C119.7,69.3,119.5,69.5,119.4,69.5z"/>
		</g>
		
			<line fill="none" stroke="#FFFFFF" stroke-width="2.0999" stroke-linecap="round" stroke-linejoin="round" stroke-miterlimit="10" x1="139.2" y1="95.6" x2="155.5" y2="95.6"/>
		
			<line fill="none" stroke="#FFFFFF" stroke-width="2.0999" stroke-linecap="round" stroke-linejoin="round" stroke-miterlimit="10" x1="139.2" y1="101.9" x2="166.4" y2="101.9"/>
		<g>
			<path fill="#95B9FC" d="M138,68.3v17.6c0,1.3,1.1,2.4,2.4,2.4H165c1.3,0,2.4-1.1,2.4-2.4V68.3c0-1.3-1.1-2.4-2.4-2.4h-24.6
				C139.1,65.9,138,67,138,68.3z"/>
			<circle fill="#0066B3" cx="146.8" cy="74.5" r="5.6"/>
			<path fill="#FFFFFF" d="M138,84.1v1.8c0,1.3,1.1,2.4,2.4,2.4H165c1.3,0,2.4-1.1,2.4-2.4v-1.8l-8.8-8.8l-5.9,6l-6-6L138,84.1z"/>
		</g>
	</g>
	<g>
		<path fill="#0066B3" d="M29.9,98.7l-0.4,0.1c-1.8,0.5-3.2,2-3.4,3.8l-1.1,16.3c6.8,2.4,14.4-1.8,14.4-1.8l-0.2-14.7
			c0-1.7-0.9-3.3-2.7-3.7l0,0L29.9,98.7z"/>
		<g>
			<polygon fill="#3D415B" points="38.9,122 39.9,126.1 27.5,126.8 27.9,121.6 			"/>
			<polygon fill="#3D415B" points="33.8,124.7 38.9,136.9 40.9,155.5 44.9,154.1 44.1,136.7 39.6,125 			"/>
			<polygon opacity="0.44" fill="#CACACA" points="34.5,126.4 37.2,126.2 35.5,128.7 			"/>
			<polygon fill="#3D415B" points="27.5,126 26.7,137.5 23.2,156.4 27.5,157.3 31.8,138 33.2,124.7 			"/>
			<g>
				<path fill="#29323D" d="M44.4,155.5l-2.4,0.3l0.4,3.4l6.8-0.8l0,0c-0.1-0.5-0.5-0.9-1.1-1l-3.5-0.4L44.4,155.5z"/>
				
					<rect x="42.4" y="158.8" transform="matrix(-0.9936 0.1128 -0.1128 -0.9936 109.2144 311.9841)" fill="#C9CDEA" width="6.9" height="0.5"/>
			</g>
			<g>
				<path fill="#29323D" d="M26.3,156.9l-2.4-0.3l-0.5,3.4l6.8,0.9l0,0c0-0.5-0.3-1-0.8-1.2l-3.3-1.2L26.3,156.9z"/>
				
					<rect x="23.3" y="160.4" transform="matrix(-0.9913 -0.1313 0.1313 -0.9913 32.1553 323.4556)" fill="#C9CDEA" width="6.9" height="0.5"/>
			</g>
			
				<rect x="40.4" y="153.9" transform="matrix(0.9834 -0.1814 0.1814 0.9834 -27.3773 10.4053)" fill="#535975" width="5.5" height="1.9"/>
			
				<rect x="22.7" y="155.1" transform="matrix(0.9813 0.1924 -0.1924 0.9813 30.5063 -1.9834)" fill="#535975" width="5.5" height="1.9"/>
		</g>
		<g>
			<g>
				<polygon fill="#DFB48F" points="31,100.1 34.5,100 34.5,92.4 31,92.5 				"/>
				<path fill="#E5BE9C" d="M35.3,97.9L35.3,97.9c2.4,0,4.3-1.9,4.3-4.3l0-5.3l-8.6-0.1l0,5.3C31,95.9,33,97.8,35.3,97.9z"/>
				<path fill="#282C3C" d="M31.1,92.1l1.2,0c0.3,0,0.6-0.3,0.5-0.6c-0.1-0.9-0.3-2.4,0.3-2.6c0.8-0.2,5.2,1,6.7-0.1
					c2.1-1.6,0.7-4.2-1.2-4.3c-1.9-0.1-1.7,2.1-3.9,2s-5.6-1-4.2,4.9L31.1,92.1z"/>
			</g>
			<path fill="#282C3C" d="M39.8,93.7c0,0-0.4,0-1.1-0.7c-0.7-0.7-2.6-0.7-3.8,0.3c-1.2,1.1-2-2.3-2-2.3l-0.6,1c0,0,0.3,1.6-1.2,1.7
				c0,0,0.3,4.9,5.1,4.3C36.1,98,39.6,97.4,39.8,93.7z"/>
			<circle fill="#E5BE9C" cx="31" cy="92.3" r="1.4"/>
		</g>
		<polygon fill="#DFB48F" points="31,98.6 33.9,100.7 34.5,98.6 		"/>
		<polygon fill="#7D6EF4" points="33.9,100.7 31,101.7 31,98.6 		"/>
		<polygon fill="#7D6EF4" points="33.9,100.7 35.3,101.4 34.5,98.6 		"/>
		<g>
			<g>
				<path fill="#C9CDEA" d="M11.7,108.3v13.1c0,1.2,1,2.2,2.2,2.2h35.5c1.2,0,2.2-1,2.2-2.2v-13.1c0-1.2-1-2.2-2.2-2.2H13.9
					C12.7,106.1,11.7,107.1,11.7,108.3z"/>
			</g>
			<g>
				<path fill="#95B9FC" d="M11.7,108.3v1.2h39.9v-1.2c0-1.2-1-2.2-2.2-2.2H13.9C12.7,106.1,11.7,107.1,11.7,108.3z"/>
				<g>
					<circle fill="#FFFFFF" cx="49.7" cy="108" r="0.5"/>
					<circle fill="#FFFFFF" cx="47.8" cy="108" r="0.5"/>
					<circle fill="#FFFFFF" cx="46" cy="108" r="0.5"/>
				</g>
			</g>
			<path fill="#FFFFFF" d="M15.3,118h20.5c0.4,0,0.7-0.3,0.7-0.7v-5.1c0-0.4-0.3-0.7-0.7-0.7H15.3c-0.4,0-0.7,0.3-0.7,0.7v5.1
				C14.7,117.7,15,118,15.3,118z"/>
			<g>
				<path fill="#FFFFFF" d="M15.1,121H43c0.3,0,0.5-0.2,0.5-0.5l0,0c0-0.3-0.2-0.5-0.5-0.5H15.1c-0.3,0-0.5,0.2-0.5,0.5l0,0
					C14.7,120.8,14.9,121,15.1,121z"/>
			</g>
		</g>
		<g>
			<g>
				<circle fill="#E2B176" cx="27.9" cy="123.2" r="2.2"/>
				<path fill="#E2B176" d="M25.2,120.6l1.1,2c0.3,0.5,1,0.7,1.5,0.4l0,0c0.5-0.3,0.7-1,0.4-1.5l-1.1-2c-0.3-0.5-1-0.7-1.5-0.4h0
					C25,119.5,24.9,120.1,25.2,120.6z"/>
			</g>
			<path fill="#0066B3" d="M25,122.1l3.6-1.8l-5-10l6.5-7.5c0.7-0.9,0.6-2.1-0.3-2.9l0,0c-0.9-0.7-2.1-0.6-2.9,0.3l-7.3,8.5
				c-0.5,0.6-0.6,1.5-0.2,2.2L25,122.1z"/>
		</g>
	</g>
	<g>
		<path fill="#FFFFFF" d="M56.1,97.2l-0.3-0.9l-0.3,0.9c-0.3,0.8-0.9,1.4-1.8,1.8l0,0l0,0c0.9,0.4,1.5,1,1.8,1.8l0.3,0.9l0.3-0.9
			c0.3-0.8,0.9-1.4,1.8-1.8l0,0l0,0C57,98.6,56.3,98,56.1,97.2z"/>
		<path fill="#FFFFFF" d="M222.2,70.7l-0.5-1.5l-0.5,1.5c-0.5,1.3-1.5,2.4-3,3l0,0l0,0c1.5,0.6,2.5,1.7,3,3l0.5,1.5l0.5-1.5
			c0.5-1.3,1.5-2.4,3-3l0,0l0,0C223.7,73.1,222.6,72,222.2,70.7z"/>
	</g>
	<g>
		<g>
			<g>
				<path fill="#C9CDEA" d="M121.8,108.7l-1.3-2.8c-0.2-0.4-0.5-0.6-0.9-0.5l-4.3,0.5c-0.7,0.1-1.3-0.3-1.5-0.9l-0.7-1.6
					c-0.3-0.7,0-1.5,0.7-1.8c0.4-0.2,0.9-0.5,1-0.5l0.2,0.5c-0.1,0-0.5,0.3-1,0.5c-0.4,0.2-0.6,0.7-0.4,1.2l0.7,1.6
					c0.2,0.4,0.6,0.6,1,0.6l4.3-0.5c0.6-0.1,1.2,0.3,1.5,0.8l1.3,2.8L121.8,108.7z"/>
				<path fill="#6D67C6" d="M121.8,96.6l-7.7,3.1c-0.5,0.2-0.7,0.7-0.5,1.2l0.6,1.3c0.2,0.4,0.7,0.6,1.1,0.5l7.8-2.9
					c0.5-0.2,0.7-0.7,0.5-1.2l-0.7-1.5C122.7,96.6,122.2,96.4,121.8,96.6z"/>
				<path fill="#8B94C8" d="M121.4,107.3L121.4,107.3c-0.4,0.2-0.6,0.6-0.4,1.1l1.6,4.7c0.3,0.8,1.2,1.1,1.9,0.7l0,0
					c0.6-0.4,0.9-1.2,0.5-1.8l-2.5-4.4C122.3,107.3,121.8,107.1,121.4,107.3z"/>
			</g>
			<g>
				<path fill="#CB273B" d="M95.9,141.7l-7.3-8.2c-0.6-0.7-0.6-1.8-0.2-2.6l6.6-9.6l4,2.3l-5.8,8.2l6.3,6.9L95.9,141.7z"/>
				<g>
					<g>
						<circle fill="#E5BE9C" cx="123" cy="111" r="2.1"/>
						<path fill="#E5BE9C" d="M121.5,114.4l1.4-1.7c0.4-0.4,0.3-1.1-0.1-1.5l0,0c-0.4-0.4-1.1-0.3-1.5,0.1L120,113
							c-0.4,0.4-0.3,1.1,0.1,1.5l0,0C120.5,114.8,121.2,114.8,121.5,114.4z"/>
					</g>
					<g>
						<g>
							<g>
								<polygon fill="#DFB48F" points="99.2,120.5 102.9,120.5 102.7,113.4 99.1,113.5 								"/>
								<path fill="#E5BE9C" d="M102,117.8L102,117.8c2.3,0,4.1-1.9,4.1-4.2l-0.1-5.1l-8.2,0.1l0.1,5.1
									C97.8,116,99.7,117.9,102,117.8z"/>
								<path fill="#282C3C" d="M103.5,111.3l0,3.8c0,1.5-1.1,2.7-2.5,2.7l-0.7,0c-2.5,0-4.5-2.1-4.5-4.7l0-3.4l7.7-0.1L103.5,111.3
									z"/>
								<path fill="#282C3C" d="M103.2,110.8c0,0,2,0.1,3.1-0.2c1.5-0.3,2.1-3.3,0.9-4.3c-0.1,0-0.1-0.1-0.2-0.1
									c-1.4-1-3.3,1.1-3.3,1.3C103.7,107.6,103.2,110.8,103.2,110.8z"/>
								<path fill="#282C3C" d="M105.1,108.2c0,0-3.3-2.9-7-1c0,0-1.2,0.3-2.4,2.5l7.3,1.7L105.1,108.2z"/>
								<circle fill="#E5BE9C" cx="103.5" cy="113.2" r="1.2"/>
								<path fill="#E5BE9C" d="M105.5,113.7h0.6c0.3,0,0.6-0.3,0.6-0.6l0,0c0-0.3-0.3-0.6-0.6-0.6h-0.6V113.7z"/>
							</g>
							<path fill="#DD2C41" d="M103.8,120.1h-5.9c-3,0-4,2.4-3.5,5l1.1,6.3l0.5,6h10.6l1.1-13.1C107.8,122,107,120.1,103.8,120.1z"
								/>
							<path fill="#0066B3" d="M106.7,137.5l3.9,19.6l0.1,16.7l-2.7,0.1l-2.5-16.2l-5.1-14l0.3,14.4l-4.1,15.9h-2.8l2.2-15.9
								L94,145.8c0,0-0.4-5.4,2-8.4H106.7z"/>
							<rect x="97.5" y="141.7" fill="#583BF7" width="5" height="3.8"/>
							<polygon fill="#E5BE9C" points="110.6,173.8 110.8,176.1 108.2,176.1 107.9,173.9 							"/>
							<polygon fill="#E5BE9C" points="96.4,173.9 95.9,176.4 93.3,176.3 93.6,173.9 							"/>
							<path opacity="0.44" fill="#C8C8C8" d="M100.2,145.5h-2.7c0,0,2.5,2.8,2.9,5.5L100.2,145.5z"/>
						</g>
						<path fill="#29323D" d="M110.6,176.1h1.7c0.9,0,2,0.3,2.2,1.5l0.1,0.7H108c0,0-0.4-1.3,0.2-2.2H110.6z"/>
						<path fill="#29323D" d="M95.6,176.1h1.7c0.9,0,2,0.3,2.2,1.5l0.1,0.7H93c0,0-0.4-1.3,0.2-2.2H95.6z"/>
						<path fill="#DD2C41" d="M103.8,124.8l-0.4-4.6l9.9-0.8l6.2-7.2l3.5,3l-6.8,8c-0.4,0.5-1,0.8-1.6,0.8L103.8,124.8z"/>
					</g>
				</g>
				<polygon opacity="0.44" fill="#C8C8C8" points="107.8,124.4 105.1,124.6 107.3,130.4 				"/>
			</g>
		</g>
		<circle fill="#DD2C41" cx="95.9" cy="109.1" r="1.7"/>
		<path fill="#2E3343" d="M96.4,108.4c0,0-3.7-2.3-5.1,2.6c-1.3,4.6,2.4,10.2,3.1,14.4c0.1,0.5,0.5,0.8,1,0.8h4c0.6,0,1.1-0.5,1-1.1
			c-0.1-2-1.2-5.8-4.2-10.4c0,0-3.2-4.4,0.1-4.9C96.3,109.8,97.1,108.9,96.4,108.4z"/>
	</g>
	<g>
		<g>
			<path fill="#8B94C8" d="M224.4,164.7c-0.4,0-0.7-0.2-0.8-0.5l-24.4-98.6c-0.1-0.4,0.2-0.7,0.6-0.8c0.4-0.1,0.8,0.2,0.9,0.5
				l24.4,98.6c0.1,0.4-0.2,0.7-0.6,0.8C224.5,164.7,224.4,164.7,224.4,164.7z"/>
			<path fill="#8B94C8" d="M206.5,164.7c-0.4,0-0.7-0.2-0.8-0.5l-24.5-98.6c-0.1-0.4,0.2-0.7,0.6-0.8c0.4-0.1,0.8,0.2,0.9,0.5
				l24.5,98.6c0.1,0.4-0.2,0.7-0.6,0.8C206.6,164.7,206.6,164.7,206.5,164.7z"/>
			<path fill="#8B94C8" d="M201.3,71.3h-18c-0.4,0-0.8-0.3-0.8-0.7c0-0.4,0.3-0.7,0.8-0.7h18c0.4,0,0.8,0.3,0.8,0.7
				C202.1,71,201.7,71.3,201.3,71.3z"/>
			<path fill="#8B94C8" d="M203.2,79.2h-18c-0.4,0-0.8-0.3-0.8-0.7s0.3-0.7,0.8-0.7h18c0.4,0,0.8,0.3,0.8,0.7S203.7,79.2,203.2,79.2
				z"/>
			<path fill="#8B94C8" d="M205.2,87.1h-18c-0.4,0-0.8-0.3-0.8-0.7c0-0.4,0.3-0.7,0.8-0.7h18c0.4,0,0.8,0.3,0.8,0.7
				C206,86.8,205.6,87.1,205.2,87.1z"/>
			<path fill="#8B94C8" d="M207.2,95h-18c-0.4,0-0.8-0.3-0.8-0.7c0-0.4,0.3-0.7,0.8-0.7h18c0.4,0,0.8,0.3,0.8,0.7
				C207.9,94.7,207.6,95,207.2,95z"/>
			<path fill="#8B94C8" d="M209.1,102.9h-18c-0.4,0-0.8-0.3-0.8-0.7c0-0.4,0.3-0.7,0.8-0.7h18c0.4,0,0.8,0.3,0.8,0.7
				C209.9,102.6,209.5,102.9,209.1,102.9z"/>
			<path fill="#8B94C8" d="M211.1,110.8h-18c-0.4,0-0.8-0.3-0.8-0.7c0-0.4,0.3-0.7,0.8-0.7h18c0.4,0,0.8,0.3,0.8,0.7
				C211.8,110.5,211.5,110.8,211.1,110.8z"/>
			<path fill="#8B94C8" d="M213,118.7h-18c-0.4,0-0.8-0.3-0.8-0.7c0-0.4,0.3-0.7,0.8-0.7h18c0.4,0,0.8,0.3,0.8,0.7
				C213.8,118.4,213.5,118.7,213,118.7z"/>
			<path fill="#8B94C8" d="M215,126.5h-18c-0.4,0-0.8-0.3-0.8-0.7c0-0.4,0.3-0.7,0.8-0.7h18c0.4,0,0.8,0.3,0.8,0.7
				C215.8,126.2,215.4,126.5,215,126.5z"/>
			<path fill="#8B94C8" d="M216.9,134.4h-18c-0.4,0-0.8-0.3-0.8-0.7s0.3-0.7,0.8-0.7h18c0.4,0,0.8,0.3,0.8,0.7
				S217.4,134.4,216.9,134.4z"/>
			<path fill="#8B94C8" d="M218.9,142.3h-18c-0.4,0-0.8-0.3-0.8-0.7s0.3-0.7,0.8-0.7h18c0.4,0,0.8,0.3,0.8,0.7
				S219.3,142.3,218.9,142.3z"/>
			<path fill="#8B94C8" d="M220.9,150.2h-18c-0.4,0-0.8-0.3-0.8-0.7s0.3-0.7,0.8-0.7h18c0.4,0,0.8,0.3,0.8,0.7
				S221.3,150.2,220.9,150.2z"/>
		</g>
		<g>
			<path fill="#29323D" d="M195.8,120.8l3-0.5l1.3,5l-8.6,0.5l-0.1-0.7c-0.1-0.7,0.3-1.3,0.9-1.6l4.1-0.7L195.8,120.8z"/>
			<g>
				<g>
					<polygon fill="#DFB48F" points="207.5,79.5 203.9,79.5 203.8,71.6 207.5,71.6 					"/>
					<path fill="#E5BE9C" d="M203,77.2L203,77.2c-2.5,0-4.5-2-4.5-4.4l-0.1-5.5l8.9-0.1l0.1,5.5C207.5,75.2,205.5,77.2,203,77.2z"/>
					<path fill="#282C3C" d="M207.4,71.3l-1.3,0c-0.3,0-0.6-0.3-0.6-0.6c0.2-0.9,0.3-2.5-0.3-2.7c-0.9-0.3-5.4,1-6.9-0.1
						c-2.2-1.6-0.7-4.3,1.3-4.5c2-0.1,1.7,2.1,4,2c2.3-0.1,5.8-1,4.4,5.1L207.4,71.3z"/>
				</g>
				<circle fill="#E5BE9C" cx="207.6" cy="71.5" r="1.4"/>
			</g>
			<g>
				<path fill="#29323D" d="M213.6,129.5l3-0.4l1.5,5.2l-8.6,0.2l-0.1-0.7c0-0.7,0.4-1.3,1-1.5l3.9-0.5L213.6,129.5z"/>
				<path fill="#3D415B" d="M200.2,97.2l-8.7,2.7c-1.5,0.3-2.5,1.8-2,3.3l5.4,18.3l5.2-0.5l-4.7-16.8l12.8-2.8
					c1.9-0.2,3.3-1.7,3.3-3.6v-0.6H200.2z"/>
				<polygon fill="#3D415B" points="209.5,99.4 211.5,112.2 217.3,130.1 212.8,130.5 206.4,112.7 202.6,99.4 				"/>
			</g>
			<path fill="#0066B3" d="M203.6,78.7L203.6,78.7c-2.5,0-4.5,2.3-4.5,5l1.1,13.5l12.4,0.5l-1.1-14.4c0-2.6-1.8-4.6-4.1-4.6
				L203.6,78.7z"/>
			<path fill="#FFFFFF" d="M199.6,73.8l3.2,0c0,0-0.1,1.3-1.9,1.3C199.6,74.9,199.6,73.8,199.6,73.8z"/>
		</g>
		<g>
			<g>
				<circle fill="#E5BE9C" cx="175.2" cy="83" r="2.6"/>
			</g>
			<polyline fill="none" stroke="#E5BE9C" stroke-width="3.8194" stroke-linejoin="round" stroke-miterlimit="10" points="
				204.6,82.5 192.5,87.8 175.7,83 			"/>
			<path fill="#1D94DD" d="M196.9,82.1l2.9,6.1l5.3-3c1.4-0.8,1.9-2.6,1.1-4l0,0c-0.7-1.2-2.1-1.7-3.4-1.2L196.9,82.1z"/>
		</g>
		<g>
			<path fill="#282C3C" d="M199.1,72.7c-0.9,0-1.7-0.8-1.7-1.7c0-0.9,0.8-1.7,1.7-1.7c0.9,0,1.7,0.8,1.7,1.7
				C200.8,72,200.1,72.7,199.1,72.7z M199.1,69.8c-0.7,0-1.2,0.6-1.2,1.2c0,0.7,0.6,1.2,1.2,1.2c0.7,0,1.2-0.6,1.2-1.2
				C200.4,70.4,199.8,69.8,199.1,69.8z"/>
			<path fill="#282C3C" d="M202.7,72.7c-0.9,0-1.7-0.8-1.7-1.7c0-0.9,0.8-1.7,1.7-1.7c0.9,0,1.7,0.8,1.7,1.7
				C204.4,72,203.7,72.7,202.7,72.7z M202.7,69.8c-0.7,0-1.2,0.6-1.2,1.2c0,0.7,0.6,1.2,1.2,1.2c0.7,0,1.2-0.6,1.2-1.2
				C204,70.4,203.4,69.8,202.7,69.8z"/>
			<rect x="200.5" y="70.2" fill="#282C3C" width="0.9" height="0.4"/>
			<rect x="204" y="70.6" fill="#282C3C" width="1.4" height="0.4"/>
		</g>
	</g>
	<path fill="#E5BE9C" d="M136.1,42.9c0,0-0.5-1.9-3.7-1.8c-3.1,0.2-4.2,2.2-3.1,3.5c1,1.3,3.7,0.4,5.4-1.7L136.1,42.9z"/>
	<path fill="#E5BE9C" d="M157.8,42.9c0,0-0.5-1.9-3.7-1.8c-3.1,0.2-4.2,2.2-3.1,3.5c1,1.3,3.7,0.4,5.4-1.7L157.8,42.9z"/>
</g>
</svg>
